<svg width="14" height="16" viewBox="0 0 14 16" fill="none" xmlns="http://www.w3.org/2000/svg">
<path d="M13.225 4.85322H0.363991C0.162977 4.85322 0 4.69024 0 4.48923V3.39725C0 2.59314 0.651848 1.94129 1.45597 1.94129H2.91193V0.363991C2.91193 0.162977 3.07491 0 3.27592 0H4.48923C4.69024 0 4.85322 0.162977 4.85322 0.363991V1.94129H8.7358V0.363991C8.7358 0.162977 8.89877 0 9.09979 0H10.3131C10.5141 0 10.6771 0.162977 10.6771 0.363991V1.94129H12.133C12.9372 1.94129 13.589 2.59314 13.589 3.39725V4.48923C13.589 4.69024 13.426 4.85322 13.225 4.85322ZM0.363991 5.82386H13.225C13.426 5.82386 13.589 5.98684 13.589 6.18786V14.0743C13.589 14.8785 12.9372 15.5303 12.133 15.5303H1.45597C0.651848 15.5303 0 14.8785 0 14.0743V6.18786C0 5.98684 0.162977 5.82386 0.363991 5.82386ZM10.4737 8.73419L9.61929 7.8728C9.47773 7.73009 9.24726 7.72915 9.10455 7.87074L5.88817 11.0612L4.49347 9.65527C4.35191 9.51255 4.12142 9.51161 3.9787 9.65321L3.11734 10.5077C2.97463 10.6492 2.97369 10.8797 3.11528 11.0224L5.62079 13.5482C5.76235 13.6909 5.99282 13.6918 6.13553 13.5502L10.4717 9.24893C10.6144 9.10737 10.6153 8.8769 10.4737 8.73419Z" fill="#9C9C9C"/>
</svg>
