<?xml version="1.0" encoding="UTF-8"?>
<svg id="Layer_1" data-name="Layer 1" xmlns="http://www.w3.org/2000/svg" viewBox="0 0 291.32 369.89">
  <defs>
    <style>
      .cls-1 {
        fill: #dfdfde;
      }

      .cls-1, .cls-2, .cls-3, .cls-4, .cls-5, .cls-6 {
        stroke: #000;
        stroke-linecap: round;
        stroke-linejoin: round;
      }

      .cls-1, .cls-2, .cls-4 {
        stroke-width: 11px;
      }

      .cls-2 {
        fill: none;
      }

      .cls-3 {
        fill: #296cb1;
      }

      .cls-3, .cls-6 {
        stroke-width: 8px;
      }

      .cls-4 {
        fill: #f7f6fd;
      }

      .cls-5 {
        fill: #cacbc9;
        stroke-width: 9px;
      }

      .cls-6 {
        fill: #f0a543;
      }
    </style>
  </defs>
  <rect class="cls-1" x="68.98" y="5.5" width="216.84" height="335.87" rx="12.08" ry="12.08"/>
  <rect class="cls-1" x="35.29" y="5.5" width="33.18" height="335.87" rx="12.08" ry="12.08"/>
  <path class="cls-1" d="m22.38,184.2l-12.78-7.64c-2.55-1.52-4.11-4.27-4.11-7.24v-85.6c0-3.15,1.76-6.05,4.56-7.49l12.78-6.6c5.61-2.9,12.3,1.18,12.3,7.49v99.84c0,6.55-7.14,10.6-12.76,7.24Z"/>
  <rect class="cls-4" x="94.65" y="28.66" width="165.43" height="285.18" rx="12.08" ry="12.08"/>
  <line class="cls-2" x1="96.07" y1="100.01" x2="256.81" y2="100.01"/>
  <line class="cls-2" x1="96.07" y1="221.76" x2="256.81" y2="221.76"/>
  <rect class="cls-2" x="133.83" y="243.53" width="87.06" height="26.53"/>
  <line class="cls-2" x1="167.02" y1="53.75" x2="186.07" y2="53.75"/>
  <rect class="cls-5" x="92.17" y="341.58" width="25.85" height="23.81"/>
  <rect class="cls-5" x="236.38" y="341.58" width="25.85" height="23.81"/>
  <circle class="cls-6" cx="200.03" cy="209.03" r="12.24"/>
  <circle class="cls-6" cx="226.14" cy="209.03" r="12.24"/>
  <g>
    <polyline class="cls-3" points="146.16 134.43 137.02 134.43 137.02 157.2 128.57 173.37 128.57 218.55 146.16 218.55"/>
    <polyline class="cls-3" points="146.16 134.43 155.31 134.43 155.31 157.2 163.76 173.37 163.76 218.55 146.16 218.55"/>
  </g>
</svg>