<svg width="14" height="16" viewBox="0 0 14 16" fill="none" xmlns="http://www.w3.org/2000/svg">
<path d="M0 14.0743C0 14.8782 0.652151 15.5303 1.45597 15.5303H12.133C12.9369 15.5303 13.589 14.8782 13.589 14.0743V5.82386H0V14.0743ZM1.94129 8.25047C1.94129 7.98355 2.15968 7.76515 2.42661 7.76515H5.33854C5.60547 7.76515 5.82386 7.98355 5.82386 8.25047V11.1624C5.82386 11.4293 5.60547 11.6477 5.33854 11.6477H2.42661C2.15968 11.6477 1.94129 11.4293 1.94129 11.1624V8.25047ZM12.133 1.94129H10.6771V0.485322C10.6771 0.218395 10.4587 0 10.1918 0H9.22112C8.95419 0 8.7358 0.218395 8.7358 0.485322V1.94129H4.85322V0.485322C4.85322 0.218395 4.63482 0 4.3679 0H3.39725C3.13033 0 2.91193 0.218395 2.91193 0.485322V1.94129H1.45597C0.652151 1.94129 0 2.59344 0 3.39725V4.85322H13.589V3.39725C13.589 2.59344 12.9369 1.94129 12.133 1.94129Z" fill="#9C9C9C"/>
</svg>
