<svg width="378" height="378" viewBox="0 0 378 378" fill="none" xmlns="http://www.w3.org/2000/svg">
<circle opacity="0.1" cx="189" cy="189" r="189" fill="#F7411F"/>
<path d="M238.638 127.889C241.024 127.094 244.206 127.094 247.388 127.094C271.251 127.094 291.137 146.98 291.137 170.843C291.137 194.706 271.251 214.592 247.388 214.592L251.365 286.182H124.094L128.072 214.592C104.208 214.592 84.3223 194.706 84.3223 170.843C84.3223 146.98 104.208 127.094 128.072 127.094C131.253 127.094 134.435 127.094 136.821 127.889" stroke="#F7411F" stroke-width="15.9088" stroke-miterlimit="10" stroke-linecap="round" stroke-linejoin="round"/>
<path d="M243.411 150.956C243.411 119.934 218.752 95.2754 187.73 95.2754C156.708 95.2754 132.049 119.934 132.049 150.956" stroke="#F7411F" stroke-width="15.9088" stroke-miterlimit="10" stroke-linecap="round" stroke-linejoin="round"/>
<path d="M187.73 230.502V254.365" stroke="#F7411F" stroke-width="15.9088" stroke-miterlimit="10" stroke-linecap="round" stroke-linejoin="round"/>
<path d="M159.889 230.502L155.912 251.979" stroke="#F7411F" stroke-width="15.9088" stroke-miterlimit="10" stroke-linecap="round" stroke-linejoin="round"/>
<path d="M215.57 230.502L219.548 251.979" stroke="#F7411F" stroke-width="15.9088" stroke-miterlimit="10" stroke-linecap="round" stroke-linejoin="round"/>
</svg>
